<?xml version="1.0" standalone="no"?>
<!DOCTYPE svg PUBLIC "-//W3C//DTD SVG 20010904//EN"
 "http://www.w3.org/TR/2001/REC-SVG-20010904/DTD/svg10.dtd">
<svg version="1.0" xmlns="http://www.w3.org/2000/svg"
 width="260.000000pt" height="260.000000pt" viewBox="0 0 260.000000 260.000000"
 preserveAspectRatio="xMidYMid meet">
<metadata>
Created by potrace 1.14, written by Peter Selinger 2001-2017
</metadata>
<g transform="translate(0.000000,260.000000) scale(0.100000,-0.100000)"
fill="#000000" stroke="none">
<path d="M1331 2490 c-28 -45 -51 -84 -51 -87 0 -4 -6 -14 -14 -22 -24 -27
-173 -319 -220 -430 -47 -113 -92 -244 -101 -300 -3 -19 -7 -37 -9 -40 -6 -10
-19 -133 -18 -170 3 -92 31 -181 57 -181 22 0 118 98 151 155 100 169 186 482
230 835 7 60 9 74 19 200 4 47 9 93 11 103 10 32 -4 17 -55 -63z"/>
<path d="M2300 2197 c-94 -38 -385 -187 -485 -247 -377 -227 -580 -434 -625
-637 -13 -56 -4 -65 55 -57 216 29 458 205 791 574 95 106 300 367 293 374 -2
2 -15 -1 -29 -7z"/>
<path d="M240 1616 c-18 -6 -42 -23 -53 -37 -19 -26 -19 -46 -19 -537 1 -568
2 -576 69 -705 30 -56 148 -197 165 -197 3 0 31 -15 62 -34 250 -150 601 -69
768 177 204 300 98 699 -227 857 -178 87 -391 76 -562 -27 -31 -18 -56 -33
-57 -33 0 0 -1 100 0 223 0 151 -3 232 -11 252 -24 58 -74 81 -135 61z m664
-671 c136 -64 222 -210 209 -355 -5 -58 -37 -152 -59 -174 -8 -8 -14 -17 -14
-21 0 -10 -60 -65 -98 -89 -103 -64 -233 -72 -342 -19 -74 35 -103 60 -148
121 -87 121 -85 301 5 419 40 52 50 62 104 98 94 62 237 70 343 20z"/>
<path d="M1214 1176 c-3 -7 4 -36 14 -63 88 -233 473 -499 1067 -739 72 -29
132 -51 134 -49 9 9 -197 243 -335 380 -107 107 -138 134 -224 205 -30 25 -57
47 -60 50 -11 12 -178 119 -230 147 -89 47 -186 75 -278 79 -62 2 -84 0 -88
-10z"/>
</g>
</svg>
